<?xml version="1.0" encoding="UTF-8"?>
<svg id="Layer_1" data-name="Layer 1" xmlns="http://www.w3.org/2000/svg" viewBox="0 0 88.28 99.1">
  <defs>
    <style>
      .cls-1 {
        fill: #fff;
        stroke-width: 0px;
      }
    </style>
  </defs>
  <path class="cls-1" d="M47.75,73.97v6.79c0,.23,0,1.13-.9,1.13h-1.13c-2.26,0-2.3-.04-4.3,0-.18,0-.9,0-.9-1.13v-6.56c0-.23-.45-.23-.9-.23-1.58,0-2.88-.2-4.32-.29-7.31-.45-11.97-4.01-12.87-11.02-.45-3.17-.45-3.85,0-3.85.9,0,.68,0,1.38-.04,1.54.06,2.46.04,4.62.06,1.92-.02,3.16-.06,4.74-.07.77,0,1.11.24,1.18.98.23,2.55,1.89,3.97,4.18,4.2,3.81.38,7.67.61,11.49.43,3.79-.18,5.83-3.61,4.37-6.82-.91-2.01-2.65-3.06-4.82-3.29-4.64-.5-9.29-1.03-13.94-1.37-6.25-.46-10.69-3.86-12.44-9.9-.54-3.64-.65-6.34.74-9.23,2.12-6.17,7.61-9.79,14.39-10.21,1.75-.03.85-.03,2.21-.03v-3.39c0-1.58.02-1.13,0-2.24s0-1.55.71-1.55c2.44,0,2.67-.02,5.97-.02.32,0,.55.19.55,1.32v5.88c.91.14,2.82.16,3.66.35,6.79,1.51,11.33,5.5,13.37,12.21.18.58.34,1.16.48,1.74.34,1.36-.03,1.53-1.45,1.53-3.62,0-6.33,0-9.78-.03-.28,0-.76-.4-.78-.66-.23-2.09-1.42-3.43-3.24-4.28-.61-.28-1.28-.54-1.94-.58-3.53-.21-7.08-.44-10.55.55-2.17.62-3.31,1.89-3.36,3.6-.08,2.76,1.52,4.55,4.48,4.91,3.14.38,6.3.59,9.43,1.04,2.9.42,5.82.88,8.64,1.65,7.08,1.92,10.9,8.49,9.27,15.64-1.53,6.71-7.19,11.77-13.93,12.78h-4.31Z"/>
  <path class="cls-1" d="M47.75,0c3.85,2.71.23.23,4.31,3.11,7.62,5.35,15.16,10.81,22.76,16.2,2.97,2.11,6,4.13,9.01,6.19,2.83,1.95,4.59,4.44,4.42,8.08,0,1.93-.06,3.56,0,5.32.09,2.16-.05,3.95,0,6.11.02.73-.43.91-1.13.9-2.94,0-5.49.04-8.43,0-.87,0-1.31,0-1.3-.89.04-3.35,0-6.59,0-9.98,0-1.27-.28-2.05-1.19-2.69-3.86-2.75-7.73-5.5-11.58-8.27-5.8-4.18-10.39-7.7-16.19-11.88-.51-.37-.68-.91-.68-1.58,0-3.17-.03-5.02,0-7.69,0-.51-.03-2.4,0-2.94Z"/>
  <path class="cls-1" d="M40.53,0c-3.85,2.71-.23.23-4.31,3.11-7.62,5.35-15.16,10.81-22.76,16.2-2.97,2.11-6,4.13-9.01,6.19C1.63,27.45-.13,29.95.04,33.59c0,1.93.06,3.56,0,5.32-.09,2.16.05,3.95,0,6.11-.02.73.43.91,1.13.9,2.94,0,5.49.04,8.43,0,.87,0,1.31,0,1.3-.89-.04-3.35,0-6.59,0-9.98,0-1.27.28-2.05,1.19-2.69,3.86-2.75,7.73-5.5,11.58-8.27,5.8-4.18,10.39-7.7,16.19-11.88.51-.37.68-.91.68-1.58,0-3.17.03-5.02,0-7.69,0-.51.03-2.4,0-2.94h0Z"/>
  <path class="cls-1" d="M47.75,99.1c3.85-2.71.23-.23,4.31-3.11,7.62-5.35,15.16-10.81,22.76-16.2,2.97-2.11,6-4.13,9.01-6.19,2.83-1.95,4.59-4.44,4.42-8.08,0-1.93-.06-3.56,0-5.32.09-2.16-.05-3.95,0-6.11.02-.73-.43-.91-1.13-.9-2.94,0-5.49-.04-8.43,0-.87,0-1.31,0-1.3.89.04,3.35,0,6.59,0,9.98,0,1.27-.28,2.05-1.19,2.69-3.86,2.75-7.73,5.5-11.58,8.27-5.8,4.18-10.39,7.7-16.19,11.88-.51.37-.68.91-.68,1.58,0,3.17-.03,5.02,0,7.69,0,.51-.03,2.4,0,2.94Z"/>
  <path class="cls-1" d="M40.53,99.1c-3.85-2.71-.23-.23-4.31-3.11-7.62-5.35-15.16-10.81-22.76-16.2-2.97-2.11-6-4.13-9.01-6.19C1.62,71.65-.14,69.16.03,65.52c0-1.93.06-3.56,0-5.32-.09-2.16.05-3.95,0-6.11-.02-.73.43-.91,1.13-.9,2.94,0,5.49-.04,8.43,0,.87,0,1.31,0,1.3.89-.04,3.35,0,6.59,0,9.98,0,1.27.28,2.05,1.19,2.69,3.86,2.75,7.73,5.5,11.58,8.27,5.8,4.18,10.39,7.7,16.19,11.88.51.37.68.91.68,1.58,0,3.17.03,5.02,0,7.69,0,.51.03,2.4,0,2.94Z"/>
</svg>