<?xml version="1.0" standalone="no"?>
<!DOCTYPE svg PUBLIC "-//W3C//DTD SVG 20010904//EN"
 "http://www.w3.org/TR/2001/REC-SVG-20010904/DTD/svg10.dtd">
<svg version="1.0" xmlns="http://www.w3.org/2000/svg"
 width="100.000000pt" height="100.000000pt" viewBox="0 0 100.000000 100.000000"
 preserveAspectRatio="xMidYMid meet">
<metadata>
Created by potrace 1.14, written by Peter Selinger 2001-2017
</metadata>
<g transform="translate(0.000000,100.000000) scale(0.100000,-0.100000)"
fill="#000000" stroke="none">
<path d="M537 992 c-3 -6 -3 -33 2 -98 1 -14 44 -51 146 -125 l145 -104 0 -62
c0 -35 3 -64 8 -64 4 -1 27 -2 50 -3 53 -3 59 8 56 101 -2 48 -8 71 -21 84
-10 10 -94 72 -188 138 -93 66 -175 124 -182 130 -7 6 -14 7 -16 3z"/>
<path d="M261 855 c-101 -72 -188 -139 -193 -148 -5 -9 -8 -52 -6 -94 l3 -78
40 -1 c62 -1 65 2 65 70 l1 61 121 85 c173 122 178 127 178 189 0 35 -4 51
-12 50 -7 -1 -96 -61 -197 -134z"/>
<path d="M467 819 c-3 -11 -4 -29 -2 -38 2 -14 -4 -18 -26 -19 -40 -1 -98 -32
-122 -64 -11 -15 -22 -50 -25 -79 -9 -96 39 -146 150 -155 35 -3 72 -7 83 -9
11 -2 28 -4 37 -4 10 -1 25 -12 34 -26 15 -23 15 -27 1 -49 -14 -21 -22 -23
-79 -21 -79 2 -105 11 -113 36 -5 16 -16 19 -66 19 -57 0 -59 -1 -59 -26 0
-70 58 -124 134 -124 40 0 59 -22 49 -58 -5 -20 -1 -22 36 -22 41 0 41 0 41
38 0 35 2 37 35 39 138 7 201 196 90 269 -26 17 -27 17 -100 28 -27 5 -59 9
-70 11 -11 2 -30 4 -42 4 -21 1 -53 25 -53 40 0 27 30 43 88 48 59 5 63 4 90
-25 24 -26 36 -30 80 -30 28 -1 54 2 56 7 9 14 -32 87 -63 114 -18 15 -50 30
-72 33 -36 6 -39 9 -39 40 0 20 -5 34 -12 35 -7 0 -23 2 -34 5 -16 2 -23 -2
-27 -17z"/>
<path d="M65 462 c-11 -11 -4 -158 8 -173 13 -16 362 -268 384 -276 10 -4 13
9 13 51 l0 56 -117 87 c-65 47 -132 97 -150 110 -29 21 -32 29 -35 85 l-3 62
-48 1 c-26 1 -49 -1 -52 -3z"/>
<path d="M843 463 c-9 -3 -13 -26 -14 -66 l0 -62 -140 -100 c-77 -55 -143
-104 -147 -110 -3 -5 -6 -33 -7 -63 -2 -40 1 -52 11 -48 7 3 97 64 199 137
136 96 187 138 192 156 7 31 10 153 3 154 -18 4 -87 5 -97 2z"/>
</g>
</svg>
